<mxfile host="app.diagrams.net" modified="2023-10-24T09:49:49.179Z" agent="Mozilla/5.0 (Windows NT 10.0; Win64; x64) AppleWebKit/537.36 (KHTML, like Gecko) Chrome/118.0.0.0 Safari/537.36" etag="5CTv4Wf2eRl8QXksuC7j" version="22.0.6" type="device">
  <diagram name="Page-1" id="2YBvvXClWsGukQMizWep">
    <mxGraphModel dx="1500" dy="774" grid="1" gridSize="10" guides="1" tooltips="1" connect="1" arrows="1" fold="1" page="1" pageScale="1" pageWidth="1169" pageHeight="827" math="0" shadow="0">
      <root>
        <mxCell id="0" />
        <mxCell id="1" parent="0" />
        <mxCell id="7cE-lO4AMA1Ozmk_IatT-5" value="" style="shape=umlLifeline;perimeter=lifelinePerimeter;whiteSpace=wrap;html=1;container=1;dropTarget=0;collapsible=0;recursiveResize=0;outlineConnect=0;portConstraint=eastwest;newEdgeStyle={&quot;curved&quot;:0,&quot;rounded&quot;:0};participant=umlActor;" parent="1" vertex="1">
          <mxGeometry x="30" y="20" width="20" height="740" as="geometry" />
        </mxCell>
        <mxCell id="7cE-lO4AMA1Ozmk_IatT-9" value="" style="html=1;points=[[0,0,0,0,5],[0,1,0,0,-5],[1,0,0,0,5],[1,1,0,0,-5]];perimeter=orthogonalPerimeter;outlineConnect=0;targetShapes=umlLifeline;portConstraint=eastwest;newEdgeStyle={&quot;curved&quot;:0,&quot;rounded&quot;:0};" parent="7cE-lO4AMA1Ozmk_IatT-5" vertex="1">
          <mxGeometry x="5" y="70" width="10" height="650" as="geometry" />
        </mxCell>
        <mxCell id="7cE-lO4AMA1Ozmk_IatT-8" value="Roman : User" style="text;align=center;fontStyle=1;verticalAlign=middle;spacingLeft=3;spacingRight=3;strokeColor=none;rotatable=0;points=[[0,0.5],[1,0.5]];portConstraint=eastwest;html=1;" parent="1" vertex="1">
          <mxGeometry y="60" width="80" height="26" as="geometry" />
        </mxCell>
        <mxCell id="7cE-lO4AMA1Ozmk_IatT-10" value="Read the supporting info" style="html=1;verticalAlign=bottom;endArrow=block;curved=0;rounded=0;" parent="1" target="7cE-lO4AMA1Ozmk_IatT-13" edge="1">
          <mxGeometry width="80" relative="1" as="geometry">
            <mxPoint x="45" y="120" as="sourcePoint" />
            <mxPoint x="190" y="120" as="targetPoint" />
          </mxGeometry>
        </mxCell>
        <mxCell id="7cE-lO4AMA1Ozmk_IatT-11" value="" style="shape=umlLifeline;perimeter=lifelinePerimeter;whiteSpace=wrap;html=1;container=1;dropTarget=0;collapsible=0;recursiveResize=0;outlineConnect=0;portConstraint=eastwest;newEdgeStyle={&quot;curved&quot;:0,&quot;rounded&quot;:0};participant=umlBoundary;" parent="1" vertex="1">
          <mxGeometry x="170" y="20" width="50" height="740" as="geometry" />
        </mxCell>
        <mxCell id="7cE-lO4AMA1Ozmk_IatT-13" value="" style="html=1;points=[[0,0,0,0,5],[0,1,0,0,-5],[1,0,0,0,5],[1,1,0,0,-5]];perimeter=orthogonalPerimeter;outlineConnect=0;targetShapes=umlLifeline;portConstraint=eastwest;newEdgeStyle={&quot;curved&quot;:0,&quot;rounded&quot;:0};" parent="7cE-lO4AMA1Ozmk_IatT-11" vertex="1">
          <mxGeometry x="20" y="90" width="10" height="630" as="geometry" />
        </mxCell>
        <mxCell id="7cE-lO4AMA1Ozmk_IatT-14" value="" style="html=1;points=[[0,0,0,0,5],[0,1,0,0,-5],[1,0,0,0,5],[1,1,0,0,-5]];perimeter=orthogonalPerimeter;outlineConnect=0;targetShapes=umlLifeline;portConstraint=eastwest;newEdgeStyle={&quot;curved&quot;:0,&quot;rounded&quot;:0};" parent="7cE-lO4AMA1Ozmk_IatT-11" vertex="1">
          <mxGeometry x="20" y="130" width="10" height="40" as="geometry" />
        </mxCell>
        <mxCell id="7cE-lO4AMA1Ozmk_IatT-15" value="HelpButton_Clicked&lt;br&gt;(Button, EventArgs)" style="html=1;align=left;spacingLeft=2;endArrow=block;rounded=0;edgeStyle=orthogonalEdgeStyle;curved=0;rounded=0;" parent="7cE-lO4AMA1Ozmk_IatT-11" target="7cE-lO4AMA1Ozmk_IatT-14" edge="1">
          <mxGeometry relative="1" as="geometry">
            <mxPoint x="30" y="110" as="sourcePoint" />
            <Array as="points">
              <mxPoint x="55" y="140" />
            </Array>
          </mxGeometry>
        </mxCell>
        <mxCell id="7cE-lO4AMA1Ozmk_IatT-17" value="" style="html=1;points=[[0,0,0,0,5],[0,1,0,0,-5],[1,0,0,0,5],[1,1,0,0,-5]];perimeter=orthogonalPerimeter;outlineConnect=0;targetShapes=umlLifeline;portConstraint=eastwest;newEdgeStyle={&quot;curved&quot;:0,&quot;rounded&quot;:0};" parent="7cE-lO4AMA1Ozmk_IatT-11" vertex="1">
          <mxGeometry x="20" y="220" width="10" height="40" as="geometry" />
        </mxCell>
        <mxCell id="7cE-lO4AMA1Ozmk_IatT-18" value="AddRowButton_Clicked&lt;br&gt;(Button,&amp;nbsp;EventArgs)" style="html=1;align=left;spacingLeft=2;endArrow=block;rounded=0;edgeStyle=orthogonalEdgeStyle;curved=0;rounded=0;" parent="7cE-lO4AMA1Ozmk_IatT-11" target="7cE-lO4AMA1Ozmk_IatT-17" edge="1">
          <mxGeometry relative="1" as="geometry">
            <mxPoint x="25" y="200" as="sourcePoint" />
            <Array as="points">
              <mxPoint x="55" y="230" />
            </Array>
          </mxGeometry>
        </mxCell>
        <mxCell id="o0CkycpTRuJBqyOfRk7J-5" value="" style="html=1;points=[[0,0,0,0,5],[0,1,0,0,-5],[1,0,0,0,5],[1,1,0,0,-5]];perimeter=orthogonalPerimeter;outlineConnect=0;targetShapes=umlLifeline;portConstraint=eastwest;newEdgeStyle={&quot;curved&quot;:0,&quot;rounded&quot;:0};" parent="7cE-lO4AMA1Ozmk_IatT-11" vertex="1">
          <mxGeometry x="20" y="550" width="10" height="40" as="geometry" />
        </mxCell>
        <mxCell id="7cE-lO4AMA1Ozmk_IatT-12" value="MainPage1 : MainPage" style="text;align=center;fontStyle=1;verticalAlign=middle;spacingLeft=3;spacingRight=3;strokeColor=none;rotatable=0;points=[[0,0.5],[1,0.5]];portConstraint=eastwest;html=1;" parent="1" vertex="1">
          <mxGeometry x="155" y="60" width="80" height="26" as="geometry" />
        </mxCell>
        <mxCell id="7cE-lO4AMA1Ozmk_IatT-16" value="Add one more row" style="html=1;verticalAlign=bottom;endArrow=block;curved=0;rounded=0;" parent="1" edge="1">
          <mxGeometry width="80" relative="1" as="geometry">
            <mxPoint x="45.000000000000114" y="210" as="sourcePoint" />
            <mxPoint x="190.0000000000001" y="210" as="targetPoint" />
          </mxGeometry>
        </mxCell>
        <mxCell id="7cE-lO4AMA1Ozmk_IatT-19" value="Enter the value in A1" style="html=1;verticalAlign=bottom;endArrow=block;curved=0;rounded=0;" parent="1" target="7cE-lO4AMA1Ozmk_IatT-13" edge="1">
          <mxGeometry width="80" relative="1" as="geometry">
            <mxPoint x="45.000000000000114" y="300" as="sourcePoint" />
            <mxPoint x="160" y="300" as="targetPoint" />
          </mxGeometry>
        </mxCell>
        <mxCell id="7cE-lO4AMA1Ozmk_IatT-26" value="CalculatÐµ A1" style="html=1;verticalAlign=bottom;endArrow=block;curved=0;rounded=0;" parent="1" edge="1">
          <mxGeometry width="80" relative="1" as="geometry">
            <mxPoint x="45.000000000000114" y="450" as="sourcePoint" />
            <mxPoint x="190.0000000000001" y="450" as="targetPoint" />
          </mxGeometry>
        </mxCell>
        <mxCell id="7cE-lO4AMA1Ozmk_IatT-31" value="Save table" style="html=1;verticalAlign=bottom;endArrow=block;curved=0;rounded=0;" parent="1" edge="1">
          <mxGeometry width="80" relative="1" as="geometry">
            <mxPoint x="45.000000000000114" y="640" as="sourcePoint" />
            <mxPoint x="190.0000000000001" y="640" as="targetPoint" />
          </mxGeometry>
        </mxCell>
        <mxCell id="7cE-lO4AMA1Ozmk_IatT-32" value="Exit" style="html=1;verticalAlign=bottom;endArrow=block;curved=0;rounded=0;" parent="1" edge="1">
          <mxGeometry width="80" relative="1" as="geometry">
            <mxPoint x="45.000000000000114" y="680" as="sourcePoint" />
            <mxPoint x="190.0000000000001" y="680" as="targetPoint" />
          </mxGeometry>
        </mxCell>
        <mxCell id="7cE-lO4AMA1Ozmk_IatT-35" value="" style="html=1;points=[[0,0,0,0,5],[0,1,0,0,-5],[1,0,0,0,5],[1,1,0,0,-5]];perimeter=orthogonalPerimeter;outlineConnect=0;targetShapes=umlLifeline;portConstraint=eastwest;newEdgeStyle={&quot;curved&quot;:0,&quot;rounded&quot;:0};" parent="1" vertex="1">
          <mxGeometry x="190" y="710.04" width="10" height="40" as="geometry" />
        </mxCell>
        <mxCell id="7cE-lO4AMA1Ozmk_IatT-36" value="ExitButton_Clicked&lt;br&gt;(Button, EventArgs)" style="html=1;align=left;spacingLeft=2;endArrow=block;rounded=0;edgeStyle=orthogonalEdgeStyle;curved=0;rounded=0;" parent="1" target="7cE-lO4AMA1Ozmk_IatT-35" edge="1">
          <mxGeometry relative="1" as="geometry">
            <mxPoint x="195" y="690.04" as="sourcePoint" />
            <Array as="points">
              <mxPoint x="225" y="720.04" />
            </Array>
          </mxGeometry>
        </mxCell>
        <mxCell id="DIeVrDlpS8Vp4WlBfVKa-1" value="" style="shape=umlLifeline;perimeter=lifelinePerimeter;whiteSpace=wrap;html=1;container=1;dropTarget=0;collapsible=0;recursiveResize=0;outlineConnect=0;portConstraint=eastwest;newEdgeStyle={&quot;curved&quot;:0,&quot;rounded&quot;:0};participant=umlControl;" parent="1" vertex="1">
          <mxGeometry x="420" y="20" width="40" height="740" as="geometry" />
        </mxCell>
        <mxCell id="DIeVrDlpS8Vp4WlBfVKa-6" value="" style="html=1;points=[[0,0,0,0,5],[0,1,0,0,-5],[1,0,0,0,5],[1,1,0,0,-5]];perimeter=orthogonalPerimeter;outlineConnect=0;targetShapes=umlLifeline;portConstraint=eastwest;newEdgeStyle={&quot;curved&quot;:0,&quot;rounded&quot;:0};" parent="DIeVrDlpS8Vp4WlBfVKa-1" vertex="1">
          <mxGeometry x="15" y="500.04" width="10" height="229.96" as="geometry" />
        </mxCell>
        <mxCell id="DIeVrDlpS8Vp4WlBfVKa-2" value="" style="shape=umlLifeline;perimeter=lifelinePerimeter;whiteSpace=wrap;html=1;container=1;dropTarget=0;collapsible=0;recursiveResize=0;outlineConnect=0;portConstraint=eastwest;newEdgeStyle={&quot;curved&quot;:0,&quot;rounded&quot;:0};participant=umlControl;" parent="1" vertex="1">
          <mxGeometry x="630" y="20" width="40" height="740" as="geometry" />
        </mxCell>
        <mxCell id="iN6dzUmJhbA6y6KSV4yy-1" value="" style="html=1;points=[[0,0,0,0,5],[0,1,0,0,-5],[1,0,0,0,5],[1,1,0,0,-5]];perimeter=orthogonalPerimeter;outlineConnect=0;targetShapes=umlLifeline;portConstraint=eastwest;newEdgeStyle={&quot;curved&quot;:0,&quot;rounded&quot;:0};" vertex="1" parent="DIeVrDlpS8Vp4WlBfVKa-2">
          <mxGeometry x="15" y="620" width="10" height="110" as="geometry" />
        </mxCell>
        <mxCell id="DIeVrDlpS8Vp4WlBfVKa-3" value="Calc1 : Calculator" style="text;align=center;fontStyle=1;verticalAlign=middle;spacingLeft=3;spacingRight=3;strokeColor=none;rotatable=0;points=[[0,0.5],[1,0.5]];portConstraint=eastwest;html=1;" parent="1" vertex="1">
          <mxGeometry x="370" y="60" width="140" height="26" as="geometry" />
        </mxCell>
        <mxCell id="DIeVrDlpS8Vp4WlBfVKa-4" value="FileManager1 :&amp;nbsp;FileManager" style="text;align=center;fontStyle=1;verticalAlign=middle;spacingLeft=3;spacingRight=3;strokeColor=none;rotatable=0;points=[[0,0.5],[1,0.5]];portConstraint=eastwest;html=1;" parent="1" vertex="1">
          <mxGeometry x="560" y="60" width="180" height="26" as="geometry" />
        </mxCell>
        <mxCell id="DIeVrDlpS8Vp4WlBfVKa-7" value="Evaluate(A1)" style="html=1;verticalAlign=bottom;endArrow=block;curved=0;rounded=0;" parent="1" edge="1">
          <mxGeometry x="0.0128" y="-1" width="80" relative="1" as="geometry">
            <mxPoint x="225" y="530" as="sourcePoint" />
            <mxPoint x="435" y="530" as="targetPoint" />
            <mxPoint as="offset" />
          </mxGeometry>
        </mxCell>
        <mxCell id="DIeVrDlpS8Vp4WlBfVKa-8" value="saveTable()" style="html=1;verticalAlign=bottom;endArrow=block;curved=0;rounded=0;" parent="1" edge="1">
          <mxGeometry x="-0.4661" width="80" relative="1" as="geometry">
            <mxPoint x="200" y="650" as="sourcePoint" />
            <mxPoint x="645" y="650" as="targetPoint" />
            <mxPoint as="offset" />
          </mxGeometry>
        </mxCell>
        <mxCell id="o0CkycpTRuJBqyOfRk7J-1" value="" style="html=1;points=[[0,0,0,0,5],[0,1,0,0,-5],[1,0,0,0,5],[1,1,0,0,-5]];perimeter=orthogonalPerimeter;outlineConnect=0;targetShapes=umlLifeline;portConstraint=eastwest;newEdgeStyle={&quot;curved&quot;:0,&quot;rounded&quot;:0};" parent="1" vertex="1">
          <mxGeometry x="190" y="330" width="10" height="40" as="geometry" />
        </mxCell>
        <mxCell id="o0CkycpTRuJBqyOfRk7J-2" value="Entry_Focused&lt;br&gt;(Entry, FocusEventArgs)" style="html=1;align=left;spacingLeft=2;endArrow=block;rounded=0;edgeStyle=orthogonalEdgeStyle;curved=0;rounded=0;" parent="1" target="o0CkycpTRuJBqyOfRk7J-1" edge="1">
          <mxGeometry relative="1" as="geometry">
            <mxPoint x="195" y="310" as="sourcePoint" />
            <Array as="points">
              <mxPoint x="225" y="340" />
            </Array>
          </mxGeometry>
        </mxCell>
        <mxCell id="o0CkycpTRuJBqyOfRk7J-3" value="" style="html=1;points=[[0,0,0,0,5],[0,1,0,0,-5],[1,0,0,0,5],[1,1,0,0,-5]];perimeter=orthogonalPerimeter;outlineConnect=0;targetShapes=umlLifeline;portConstraint=eastwest;newEdgeStyle={&quot;curved&quot;:0,&quot;rounded&quot;:0};" parent="1" vertex="1">
          <mxGeometry x="190" y="390" width="10" height="40" as="geometry" />
        </mxCell>
        <mxCell id="o0CkycpTRuJBqyOfRk7J-4" value="Input_Focused&lt;br&gt;(Entry, FocusEventArgs)" style="html=1;align=left;spacingLeft=2;endArrow=block;rounded=0;edgeStyle=orthogonalEdgeStyle;curved=0;rounded=0;" parent="1" edge="1">
          <mxGeometry relative="1" as="geometry">
            <mxPoint x="195" y="380" as="sourcePoint" />
            <Array as="points">
              <mxPoint x="225" y="410" />
            </Array>
            <mxPoint x="200" y="410.0000000000001" as="targetPoint" />
          </mxGeometry>
        </mxCell>
        <mxCell id="o0CkycpTRuJBqyOfRk7J-6" value="CalculateButton_Clicked&lt;br&gt;(Button,&amp;nbsp;EventArgs)" style="html=1;align=left;spacingLeft=2;endArrow=block;rounded=0;edgeStyle=orthogonalEdgeStyle;curved=0;rounded=0;" parent="1" edge="1">
          <mxGeometry x="-0.4595" relative="1" as="geometry">
            <mxPoint x="195" y="460" as="sourcePoint" />
            <Array as="points">
              <mxPoint x="225" y="460" />
              <mxPoint x="225" y="590" />
              <mxPoint x="200" y="590" />
            </Array>
            <mxPoint x="200" y="590" as="targetPoint" />
            <mxPoint as="offset" />
          </mxGeometry>
        </mxCell>
        <mxCell id="o0CkycpTRuJBqyOfRk7J-7" value="return(bool)" style="endArrow=open;endSize=12;dashed=1;html=1;rounded=0;" parent="1" edge="1">
          <mxGeometry x="-0.0213" y="-10" width="160" relative="1" as="geometry">
            <mxPoint x="435" y="560" as="sourcePoint" />
            <mxPoint x="225" y="560" as="targetPoint" />
            <mxPoint as="offset" />
          </mxGeometry>
        </mxCell>
      </root>
    </mxGraphModel>
  </diagram>
</mxfile>
